<?xml version="1.0" encoding="UTF-8" standalone="no"?>
<svg width="64" height="65" viewBox="3 -54 64 65" fill="#808080" xmlns="http://www.w3.org/2000/svg">
  <path d="M38.7360-53.1360L38.7360-53.1360Q43.9200-52.7760 48.9600-50.2560L48.9600-50.2560Q53.7120-47.9520 57.6000-44.1360L57.6000-44.1360Q66.6000-34.4160 66.6000-21.1680L66.6000-21.1680Q66.6000-15.8400 64.6560-10.7280L64.6560-10.7280Q62.8560-5.8320 59.4000-1.3680L59.4000-1.3680Q55.9440 2.8080 51.4080 5.5440L51.4080 5.5440Q46.6560 8.4240 41.4000 9.4320L41.4000 9.4320Q35.8560 10.5120 30.7440 9.7200L30.7440 9.7200Q25.3440 8.9280 20.7360 6.3360L20.7360 6.3360Q15.9120 3.5280 12.3480-0.4680Q8.7840-4.4640 6.7320-9.5040Q4.6800-14.5440 4.4280-20.0880Q4.1760-25.6320 5.8320-30.6000L5.8320-30.6000Q9.3600-41.8320 18.4320-47.7360L18.4320-47.7360Q22.7520-50.6880 28.0080-52.0560Q33.2640-53.4240 38.7360-53.1360ZM40.9680 4.9680L40.9680 4.9680Q45.4320 3.8880 49.2480 1.5840L49.2480 1.5840Q53.2800-0.8640 56.2320-4.5360L56.2320-4.5360Q59.1120-8.4240 60.4800-12.5280L60.4800-12.5280Q61.9920-17.0640 61.6320-21.6000L61.6320-21.6000Q61.6320-27.0720 59.6520-32.1840Q57.6720-37.2960 54.0000-40.9680L54.0000-40.9680Q47.0160-47.9520 37.8000-48.6000L37.8000-48.6000Q33.2640-48.9600 28.9440-47.8800L28.9440-47.8800Q24.2640-46.7280 20.6640-44.1360L20.6640-44.1360Q12.9600-38.5200 10.3680-29.2320L10.3680-29.2320Q8.9280-24.6960 9.1440-20.2320L9.1440-20.2320Q9.2880-15.4800 11.2320-11.2320L11.2320-11.2320Q15.3360-2.4480 23.4000 2.2320L23.4000 2.2320Q27.4320 4.6080 31.9680 5.2920Q36.5040 5.9760 40.9680 4.9680ZM24.7680-35.1360L35.5680-23.8320L46.3680-35.1360L49.5360-31.9680L38.7360-20.7360L49.5360-9.4320L46.3680-6.3360L35.5680-17.5680L24.7680-6.3360L21.6000-9.4320L32.4000-20.7360L21.6000-31.9680L24.7680-35.1360Z"/>
</svg>