<?xml version="1.0" encoding="UTF-8" standalone="no"?>
<svg width="74" height="56" viewBox="-1 -50 74 56" fill="#808080" xmlns="http://www.w3.org/2000/svg">
  <path d="M9.0000-20.3760L9.0000-20.3760L3.5280-14.8320L0-18.2880L9.4320-27.6480L12.8160-27.5760L22.2480-18.0720L18.7920-14.6160L13.5360-19.9440Q13.8960-14.9760 16.2720-10.6920Q18.6480-6.4080 22.5720-3.4920Q26.4960-0.5760 31.3560 0.4320Q36.2160 1.4400 40.9680 0.3600Q45.7200-0.7200 49.6080-3.6720Q53.4960-6.6240 55.8720-11.0160L55.8720-11.0160L59.5440-8.3520Q56.5920-3.1680 51.8040 0.2880Q47.0160 3.7440 41.2560 4.8960Q35.4960 6.0480 29.7000 4.6800Q23.9040 3.3120 19.2960-0.3600Q14.6880-4.0320 11.9880-9.2520Q9.2880-14.4720 9.0000-20.3760ZM58.4640-22.4640L58.4640-22.4640L52.9200-28.1520L49.5360-24.6960L58.8960-15.1920L62.3520-15.1920L71.7120-24.4800L68.3280-27.9360L63.0000-22.6080Q62.7840-28.4400 60.1560-33.6600Q57.5280-38.8800 53.0280-42.5520Q48.5280-46.2240 42.8400-47.7360Q37.1520-49.2480 31.4280-48.2400Q25.7040-47.2320 20.8800-43.9920Q16.0560-40.7520 12.9600-35.7120L12.9600-35.7120L16.6320-33.0480Q19.1520-37.2960 23.1480-40.0680Q27.1440-42.8400 31.9320-43.7400Q36.7200-44.6400 41.5080-43.4160Q46.2960-42.1920 50.0760-39.1320Q53.8560-36.0720 56.0880-31.7520Q58.3200-27.4320 58.4640-22.4640Z"/>
</svg>